<svg class="rich-terminal" viewBox="0 0 994 733.1999999999999" xmlns="http://www.w3.org/2000/svg">
    <!-- Generated with Rich https://www.textualize.io -->
    <style>

    @font-face {
        font-family: "Fira Code";
        src: local("FiraCode-Regular"),
                url("https://cdnjs.cloudflare.com/ajax/libs/firacode/6.2.0/woff2/FiraCode-Regular.woff2") format("woff2"),
                url("https://cdnjs.cloudflare.com/ajax/libs/firacode/6.2.0/woff/FiraCode-Regular.woff") format("woff");
        font-style: normal;
        font-weight: 400;
    }
    @font-face {
        font-family: "Fira Code";
        src: local("FiraCode-Bold"),
                url("https://cdnjs.cloudflare.com/ajax/libs/firacode/6.2.0/woff2/FiraCode-Bold.woff2") format("woff2"),
                url("https://cdnjs.cloudflare.com/ajax/libs/firacode/6.2.0/woff/FiraCode-Bold.woff") format("woff");
        font-style: bold;
        font-weight: 700;
    }

    .terminal-1384607394-matrix {
        font-family: Fira Code, monospace;
        font-size: 20px;
        line-height: 24.4px;
        font-variant-east-asian: full-width;
    }

    .terminal-1384607394-title {
        font-size: 18px;
        font-weight: bold;
        font-family: arial;
    }

    .terminal-1384607394-r1 { fill: #e3e3e5;font-weight: bold }
.terminal-1384607394-r2 { fill: #8a8a8a }
.terminal-1384607394-r3 { fill: #e9e4e0;font-weight: bold }
.terminal-1384607394-r4 { fill: #e9e4e0 }
.terminal-1384607394-r5 { fill: #b48cff }
.terminal-1384607394-r6 { fill: #6dff9d;font-weight: bold }
.terminal-1384607394-r7 { fill: #c5c8c6 }
.terminal-1384607394-r8 { fill: #e1e0de }
.terminal-1384607394-r9 { fill: #694f38 }
.terminal-1384607394-r10 { fill: #6db8ff;font-weight: bold }
.terminal-1384607394-r11 { fill: #b48cff;font-weight: bold }
.terminal-1384607394-r12 { fill: #56402c }
.terminal-1384607394-r13 { fill: #e1e0de;font-weight: bold }
.terminal-1384607394-r14 { fill: #7fb7d9 }
.terminal-1384607394-r15 { fill: #003054 }
.terminal-1384607394-r16 { fill: #1d1308 }
.terminal-1384607394-r17 { fill: #e0e0e0 }
.terminal-1384607394-r18 { fill: #e0e0e0;font-weight: bold }
.terminal-1384607394-r19 { fill: #57a5e2 }
.terminal-1384607394-r20 { fill: #ffcf6d }
.terminal-1384607394-r21 { fill: #121212 }
.terminal-1384607394-r22 { fill: #80776e }
    </style>

    <defs>
    <clipPath id="terminal-1384607394-clip-terminal">
      <rect x="0" y="0" width="975.0" height="682.1999999999999" />
    </clipPath>
    <clipPath id="terminal-1384607394-line-0">
    <rect x="0" y="1.5" width="976" height="24.65"/>
            </clipPath>
<clipPath id="terminal-1384607394-line-1">
    <rect x="0" y="25.9" width="976" height="24.65"/>
            </clipPath>
<clipPath id="terminal-1384607394-line-2">
    <rect x="0" y="50.3" width="976" height="24.65"/>
            </clipPath>
<clipPath id="terminal-1384607394-line-3">
    <rect x="0" y="74.7" width="976" height="24.65"/>
            </clipPath>
<clipPath id="terminal-1384607394-line-4">
    <rect x="0" y="99.1" width="976" height="24.65"/>
            </clipPath>
<clipPath id="terminal-1384607394-line-5">
    <rect x="0" y="123.5" width="976" height="24.65"/>
            </clipPath>
<clipPath id="terminal-1384607394-line-6">
    <rect x="0" y="147.9" width="976" height="24.65"/>
            </clipPath>
<clipPath id="terminal-1384607394-line-7">
    <rect x="0" y="172.3" width="976" height="24.65"/>
            </clipPath>
<clipPath id="terminal-1384607394-line-8">
    <rect x="0" y="196.7" width="976" height="24.65"/>
            </clipPath>
<clipPath id="terminal-1384607394-line-9">
    <rect x="0" y="221.1" width="976" height="24.65"/>
            </clipPath>
<clipPath id="terminal-1384607394-line-10">
    <rect x="0" y="245.5" width="976" height="24.65"/>
            </clipPath>
<clipPath id="terminal-1384607394-line-11">
    <rect x="0" y="269.9" width="976" height="24.65"/>
            </clipPath>
<clipPath id="terminal-1384607394-line-12">
    <rect x="0" y="294.3" width="976" height="24.65"/>
            </clipPath>
<clipPath id="terminal-1384607394-line-13">
    <rect x="0" y="318.7" width="976" height="24.65"/>
            </clipPath>
<clipPath id="terminal-1384607394-line-14">
    <rect x="0" y="343.1" width="976" height="24.65"/>
            </clipPath>
<clipPath id="terminal-1384607394-line-15">
    <rect x="0" y="367.5" width="976" height="24.65"/>
            </clipPath>
<clipPath id="terminal-1384607394-line-16">
    <rect x="0" y="391.9" width="976" height="24.65"/>
            </clipPath>
<clipPath id="terminal-1384607394-line-17">
    <rect x="0" y="416.3" width="976" height="24.65"/>
            </clipPath>
<clipPath id="terminal-1384607394-line-18">
    <rect x="0" y="440.7" width="976" height="24.65"/>
            </clipPath>
<clipPath id="terminal-1384607394-line-19">
    <rect x="0" y="465.1" width="976" height="24.65"/>
            </clipPath>
<clipPath id="terminal-1384607394-line-20">
    <rect x="0" y="489.5" width="976" height="24.65"/>
            </clipPath>
<clipPath id="terminal-1384607394-line-21">
    <rect x="0" y="513.9" width="976" height="24.65"/>
            </clipPath>
<clipPath id="terminal-1384607394-line-22">
    <rect x="0" y="538.3" width="976" height="24.65"/>
            </clipPath>
<clipPath id="terminal-1384607394-line-23">
    <rect x="0" y="562.7" width="976" height="24.65"/>
            </clipPath>
<clipPath id="terminal-1384607394-line-24">
    <rect x="0" y="587.1" width="976" height="24.65"/>
            </clipPath>
<clipPath id="terminal-1384607394-line-25">
    <rect x="0" y="611.5" width="976" height="24.65"/>
            </clipPath>
<clipPath id="terminal-1384607394-line-26">
    <rect x="0" y="635.9" width="976" height="24.65"/>
            </clipPath>
    </defs>

    <rect fill="#292929" stroke="rgba(255,255,255,0.35)" stroke-width="1" x="1" y="1" width="992" height="731.2" rx="8"/><text class="terminal-1384607394-title" fill="#c5c8c6" text-anchor="middle" x="496" y="27">QwenPaw-TUI</text>
            <g transform="translate(26,22)">
            <circle cx="0" cy="0" r="7" fill="#ff5f57"/>
            <circle cx="22" cy="0" r="7" fill="#febc2e"/>
            <circle cx="44" cy="0" r="7" fill="#28c840"/>
            </g>
        
    <g transform="translate(9, 41)" clip-path="url(#terminal-1384607394-clip-terminal)">
    <rect fill="#2a2a3a" x="0" y="1.5" width="329.4" height="24.65" shape-rendering="crispEdges"/><rect fill="#5a3614" x="329.4" y="1.5" width="97.6" height="24.65" shape-rendering="crispEdges"/><rect fill="#5a3614" x="427" y="1.5" width="85.4" height="24.65" shape-rendering="crispEdges"/><rect fill="#5a3614" x="512.4" y="1.5" width="24.4" height="24.65" shape-rendering="crispEdges"/><rect fill="#5a3614" x="536.8" y="1.5" width="134.2" height="24.65" shape-rendering="crispEdges"/><rect fill="#5a3614" x="671" y="1.5" width="122" height="24.65" shape-rendering="crispEdges"/><rect fill="#5a3614" x="793" y="1.5" width="134.2" height="24.65" shape-rendering="crispEdges"/><rect fill="#5a3614" x="927.2" y="1.5" width="12.2" height="24.65" shape-rendering="crispEdges"/><rect fill="#5a3614" x="939.4" y="1.5" width="36.6" height="24.65" shape-rendering="crispEdges"/><rect fill="#1d1308" x="0" y="25.9" width="24.4" height="24.65" shape-rendering="crispEdges"/><rect fill="#1d1308" x="24.4" y="25.9" width="902.8" height="24.65" shape-rendering="crispEdges"/><rect fill="#000000" x="927.2" y="25.9" width="24.4" height="24.65" shape-rendering="crispEdges"/><rect fill="#1d1308" x="951.6" y="25.9" width="24.4" height="24.65" shape-rendering="crispEdges"/><rect fill="#1d1308" x="0" y="50.3" width="24.4" height="24.65" shape-rendering="crispEdges"/><rect fill="#1d1308" x="24.4" y="50.3" width="12.2" height="24.65" shape-rendering="crispEdges"/><rect fill="#1d1308" x="36.6" y="50.3" width="488" height="24.65" shape-rendering="crispEdges"/><rect fill="#1d1308" x="524.6" y="50.3" width="12.2" height="24.65" shape-rendering="crispEdges"/><rect fill="#1d1308" x="536.8" y="50.3" width="390.4" height="24.65" shape-rendering="crispEdges"/><rect fill="#000000" x="927.2" y="50.3" width="24.4" height="24.65" shape-rendering="crispEdges"/><rect fill="#1d1308" x="951.6" y="50.3" width="24.4" height="24.65" shape-rendering="crispEdges"/><rect fill="#1d1308" x="0" y="74.7" width="24.4" height="24.65" shape-rendering="crispEdges"/><rect fill="#1d1308" x="24.4" y="74.7" width="12.2" height="24.65" shape-rendering="crispEdges"/><rect fill="#1d1308" x="36.6" y="74.7" width="12.2" height="24.65" shape-rendering="crispEdges"/><rect fill="#1d1308" x="48.8" y="74.7" width="24.4" height="24.65" shape-rendering="crispEdges"/><rect fill="#1d1308" x="73.2" y="74.7" width="439.2" height="24.65" shape-rendering="crispEdges"/><rect fill="#1d1308" x="512.4" y="74.7" width="12.2" height="24.65" shape-rendering="crispEdges"/><rect fill="#1d1308" x="524.6" y="74.7" width="12.2" height="24.65" shape-rendering="crispEdges"/><rect fill="#1d1308" x="536.8" y="74.7" width="390.4" height="24.65" shape-rendering="crispEdges"/><rect fill="#000000" x="927.2" y="74.7" width="24.4" height="24.65" shape-rendering="crispEdges"/><rect fill="#1d1308" x="951.6" y="74.7" width="24.4" height="24.65" shape-rendering="crispEdges"/><rect fill="#1d1308" x="0" y="99.1" width="24.4" height="24.65" shape-rendering="crispEdges"/><rect fill="#1d1308" x="24.4" y="99.1" width="12.2" height="24.65" shape-rendering="crispEdges"/><rect fill="#1d1308" x="36.6" y="99.1" width="488" height="24.65" shape-rendering="crispEdges"/><rect fill="#1d1308" x="524.6" y="99.1" width="12.2" height="24.65" shape-rendering="crispEdges"/><rect fill="#1d1308" x="536.8" y="99.1" width="390.4" height="24.65" shape-rendering="crispEdges"/><rect fill="#000000" x="927.2" y="99.1" width="24.4" height="24.65" shape-rendering="crispEdges"/><rect fill="#1d1308" x="951.6" y="99.1" width="24.4" height="24.65" shape-rendering="crispEdges"/><rect fill="#1d1308" x="0" y="123.5" width="24.4" height="24.65" shape-rendering="crispEdges"/><rect fill="#1d1308" x="24.4" y="123.5" width="902.8" height="24.65" shape-rendering="crispEdges"/><rect fill="#000000" x="927.2" y="123.5" width="24.4" height="24.65" shape-rendering="crispEdges"/><rect fill="#1d1308" x="951.6" y="123.5" width="24.4" height="24.65" shape-rendering="crispEdges"/><rect fill="#1d1308" x="0" y="147.9" width="24.4" height="24.65" shape-rendering="crispEdges"/><rect fill="#1d1308" x="24.4" y="147.9" width="12.2" height="24.65" shape-rendering="crispEdges"/><rect fill="#1d1308" x="36.6" y="147.9" width="85.4" height="24.65" shape-rendering="crispEdges"/><rect fill="#1d1308" x="122" y="147.9" width="805.2" height="24.65" shape-rendering="crispEdges"/><rect fill="#000000" x="927.2" y="147.9" width="24.4" height="24.65" shape-rendering="crispEdges"/><rect fill="#1d1308" x="951.6" y="147.9" width="24.4" height="24.65" shape-rendering="crispEdges"/><rect fill="#1d1308" x="0" y="172.3" width="24.4" height="24.65" shape-rendering="crispEdges"/><rect fill="#1d1308" x="24.4" y="172.3" width="12.2" height="24.65" shape-rendering="crispEdges"/><rect fill="#1d1308" x="36.6" y="172.3" width="878.4" height="24.65" shape-rendering="crispEdges"/><rect fill="#1d1308" x="915" y="172.3" width="12.2" height="24.65" shape-rendering="crispEdges"/><rect fill="#000000" x="927.2" y="172.3" width="24.4" height="24.65" shape-rendering="crispEdges"/><rect fill="#1d1308" x="951.6" y="172.3" width="24.4" height="24.65" shape-rendering="crispEdges"/><rect fill="#1d1308" x="0" y="196.7" width="24.4" height="24.65" shape-rendering="crispEdges"/><rect fill="#1d1308" x="24.4" y="196.7" width="12.2" height="24.65" shape-rendering="crispEdges"/><rect fill="#1d1308" x="36.6" y="196.7" width="12.2" height="24.65" shape-rendering="crispEdges"/><rect fill="#1d1308" x="48.8" y="196.7" width="24.4" height="24.65" shape-rendering="crispEdges"/><rect fill="#1d1308" x="73.2" y="196.7" width="73.2" height="24.65" shape-rendering="crispEdges"/><rect fill="#1d1308" x="146.4" y="196.7" width="122" height="24.65" shape-rendering="crispEdges"/><rect fill="#1d1308" x="268.4" y="196.7" width="24.4" height="24.65" shape-rendering="crispEdges"/><rect fill="#1d1308" x="292.8" y="196.7" width="402.6" height="24.65" shape-rendering="crispEdges"/><rect fill="#1d1308" x="695.4" y="196.7" width="207.4" height="24.65" shape-rendering="crispEdges"/><rect fill="#1d1308" x="902.8" y="196.7" width="12.2" height="24.65" shape-rendering="crispEdges"/><rect fill="#1d1308" x="915" y="196.7" width="12.2" height="24.65" shape-rendering="crispEdges"/><rect fill="#000000" x="927.2" y="196.7" width="24.4" height="24.65" shape-rendering="crispEdges"/><rect fill="#1d1308" x="951.6" y="196.7" width="24.4" height="24.65" shape-rendering="crispEdges"/><rect fill="#1d1308" x="0" y="221.1" width="24.4" height="24.65" shape-rendering="crispEdges"/><rect fill="#1d1308" x="24.4" y="221.1" width="12.2" height="24.65" shape-rendering="crispEdges"/><rect fill="#1d1308" x="36.6" y="221.1" width="878.4" height="24.65" shape-rendering="crispEdges"/><rect fill="#1d1308" x="915" y="221.1" width="12.2" height="24.65" shape-rendering="crispEdges"/><rect fill="#003054" x="927.2" y="221.1" width="24.4" height="24.65" shape-rendering="crispEdges"/><rect fill="#1d1308" x="951.6" y="221.1" width="24.4" height="24.65" shape-rendering="crispEdges"/><rect fill="#1d1308" x="0" y="245.5" width="24.4" height="24.65" shape-rendering="crispEdges"/><rect fill="#1d1308" x="24.4" y="245.5" width="902.8" height="24.65" shape-rendering="crispEdges"/><rect fill="#003054" x="927.2" y="245.5" width="24.4" height="24.65" shape-rendering="crispEdges"/><rect fill="#1d1308" x="951.6" y="245.5" width="24.4" height="24.65" shape-rendering="crispEdges"/><rect fill="#1d1308" x="0" y="269.9" width="24.4" height="24.65" shape-rendering="crispEdges"/><rect fill="#1d1308" x="24.4" y="269.9" width="12.2" height="24.65" shape-rendering="crispEdges"/><rect fill="#1d1308" x="36.6" y="269.9" width="878.4" height="24.65" shape-rendering="crispEdges"/><rect fill="#1d1308" x="915" y="269.9" width="12.2" height="24.65" shape-rendering="crispEdges"/><rect fill="#003054" x="927.2" y="269.9" width="24.4" height="24.65" shape-rendering="crispEdges"/><rect fill="#1d1308" x="951.6" y="269.9" width="24.4" height="24.65" shape-rendering="crispEdges"/><rect fill="#1d1308" x="0" y="294.3" width="24.4" height="24.65" shape-rendering="crispEdges"/><rect fill="#1d1308" x="24.4" y="294.3" width="12.2" height="24.65" shape-rendering="crispEdges"/><rect fill="#1d1308" x="36.6" y="294.3" width="12.2" height="24.65" shape-rendering="crispEdges"/><rect fill="#1d1308" x="48.8" y="294.3" width="390.4" height="24.65" shape-rendering="crispEdges"/><rect fill="#1d1308" x="439.2" y="294.3" width="244" height="24.65" shape-rendering="crispEdges"/><rect fill="#1d1308" x="683.2" y="294.3" width="12.2" height="24.65" shape-rendering="crispEdges"/><rect fill="#1d1308" x="695.4" y="294.3" width="207.4" height="24.65" shape-rendering="crispEdges"/><rect fill="#1d1308" x="902.8" y="294.3" width="12.2" height="24.65" shape-rendering="crispEdges"/><rect fill="#1d1308" x="915" y="294.3" width="12.2" height="24.65" shape-rendering="crispEdges"/><rect fill="#003054" x="927.2" y="294.3" width="24.4" height="24.65" shape-rendering="crispEdges"/><rect fill="#1d1308" x="951.6" y="294.3" width="24.4" height="24.65" shape-rendering="crispEdges"/><rect fill="#1d1308" x="0" y="318.7" width="24.4" height="24.65" shape-rendering="crispEdges"/><rect fill="#1d1308" x="24.4" y="318.7" width="12.2" height="24.65" shape-rendering="crispEdges"/><rect fill="#1d1308" x="36.6" y="318.7" width="12.2" height="24.65" shape-rendering="crispEdges"/><rect fill="#1d1308" x="48.8" y="318.7" width="854" height="24.65" shape-rendering="crispEdges"/><rect fill="#1d1308" x="902.8" y="318.7" width="12.2" height="24.65" shape-rendering="crispEdges"/><rect fill="#1d1308" x="915" y="318.7" width="12.2" height="24.65" shape-rendering="crispEdges"/><rect fill="#003054" x="927.2" y="318.7" width="24.4" height="24.65" shape-rendering="crispEdges"/><rect fill="#1d1308" x="951.6" y="318.7" width="24.4" height="24.65" shape-rendering="crispEdges"/><rect fill="#1d1308" x="0" y="343.1" width="24.4" height="24.65" shape-rendering="crispEdges"/><rect fill="#1d1308" x="24.4" y="343.1" width="12.2" height="24.65" shape-rendering="crispEdges"/><rect fill="#1d1308" x="36.6" y="343.1" width="12.2" height="24.65" shape-rendering="crispEdges"/><rect fill="#1d1308" x="48.8" y="343.1" width="24.4" height="24.65" shape-rendering="crispEdges"/><rect fill="#1d1308" x="73.2" y="343.1" width="146.4" height="24.65" shape-rendering="crispEdges"/><rect fill="#1d1308" x="219.6" y="343.1" width="646.6" height="24.65" shape-rendering="crispEdges"/><rect fill="#1d1308" x="866.2" y="343.1" width="36.6" height="24.65" shape-rendering="crispEdges"/><rect fill="#1d1308" x="902.8" y="343.1" width="12.2" height="24.65" shape-rendering="crispEdges"/><rect fill="#1d1308" x="915" y="343.1" width="12.2" height="24.65" shape-rendering="crispEdges"/><rect fill="#003054" x="927.2" y="343.1" width="24.4" height="24.65" shape-rendering="crispEdges"/><rect fill="#1d1308" x="951.6" y="343.1" width="24.4" height="24.65" shape-rendering="crispEdges"/><rect fill="#1d1308" x="0" y="367.5" width="24.4" height="24.65" shape-rendering="crispEdges"/><rect fill="#1d1308" x="24.4" y="367.5" width="12.2" height="24.65" shape-rendering="crispEdges"/><rect fill="#1d1308" x="36.6" y="367.5" width="12.2" height="24.65" shape-rendering="crispEdges"/><rect fill="#1d1308" x="48.8" y="367.5" width="24.4" height="24.65" shape-rendering="crispEdges"/><rect fill="#1d1308" x="73.2" y="367.5" width="122" height="24.65" shape-rendering="crispEdges"/><rect fill="#1d1308" x="195.2" y="367.5" width="707.6" height="24.65" shape-rendering="crispEdges"/><rect fill="#1d1308" x="902.8" y="367.5" width="12.2" height="24.65" shape-rendering="crispEdges"/><rect fill="#1d1308" x="915" y="367.5" width="12.2" height="24.65" shape-rendering="crispEdges"/><rect fill="#003054" x="927.2" y="367.5" width="24.4" height="24.65" shape-rendering="crispEdges"/><rect fill="#1d1308" x="951.6" y="367.5" width="24.4" height="24.65" shape-rendering="crispEdges"/><rect fill="#1d1308" x="0" y="391.9" width="24.4" height="24.65" shape-rendering="crispEdges"/><rect fill="#1d1308" x="24.4" y="391.9" width="12.2" height="24.65" shape-rendering="crispEdges"/><rect fill="#1d1308" x="36.6" y="391.9" width="12.2" height="24.65" shape-rendering="crispEdges"/><rect fill="#1d1308" x="48.8" y="391.9" width="24.4" height="24.65" shape-rendering="crispEdges"/><rect fill="#1d1308" x="73.2" y="391.9" width="183" height="24.65" shape-rendering="crispEdges"/><rect fill="#1d1308" x="256.2" y="391.9" width="573.4" height="24.65" shape-rendering="crispEdges"/><rect fill="#1d1308" x="829.6" y="391.9" width="73.2" height="24.65" shape-rendering="crispEdges"/><rect fill="#1d1308" x="902.8" y="391.9" width="12.2" height="24.65" shape-rendering="crispEdges"/><rect fill="#1d1308" x="915" y="391.9" width="12.2" height="24.65" shape-rendering="crispEdges"/><rect fill="#003054" x="927.2" y="391.9" width="24.4" height="24.65" shape-rendering="crispEdges"/><rect fill="#1d1308" x="951.6" y="391.9" width="24.4" height="24.65" shape-rendering="crispEdges"/><rect fill="#1d1308" x="0" y="416.3" width="24.4" height="24.65" shape-rendering="crispEdges"/><rect fill="#1d1308" x="24.4" y="416.3" width="12.2" height="24.65" shape-rendering="crispEdges"/><rect fill="#1d1308" x="36.6" y="416.3" width="12.2" height="24.65" shape-rendering="crispEdges"/><rect fill="#1d1308" x="48.8" y="416.3" width="24.4" height="24.65" shape-rendering="crispEdges"/><rect fill="#1d1308" x="73.2" y="416.3" width="207.4" height="24.65" shape-rendering="crispEdges"/><rect fill="#1d1308" x="280.6" y="416.3" width="622.2" height="24.65" shape-rendering="crispEdges"/><rect fill="#1d1308" x="902.8" y="416.3" width="12.2" height="24.65" shape-rendering="crispEdges"/><rect fill="#1d1308" x="915" y="416.3" width="12.2" height="24.65" shape-rendering="crispEdges"/><rect fill="#003054" x="927.2" y="416.3" width="24.4" height="24.65" shape-rendering="crispEdges"/><rect fill="#1d1308" x="951.6" y="416.3" width="24.4" height="24.65" shape-rendering="crispEdges"/><rect fill="#1d1308" x="0" y="440.7" width="24.4" height="24.65" shape-rendering="crispEdges"/><rect fill="#1d1308" x="24.4" y="440.7" width="12.2" height="24.65" shape-rendering="crispEdges"/><rect fill="#1d1308" x="36.6" y="440.7" width="12.2" height="24.65" shape-rendering="crispEdges"/><rect fill="#1d1308" x="48.8" y="440.7" width="24.4" height="24.65" shape-rendering="crispEdges"/><rect fill="#1d1308" x="73.2" y="440.7" width="158.6" height="24.65" shape-rendering="crispEdges"/><rect fill="#1d1308" x="231.8" y="440.7" width="671" height="24.65" shape-rendering="crispEdges"/><rect fill="#1d1308" x="902.8" y="440.7" width="12.2" height="24.65" shape-rendering="crispEdges"/><rect fill="#1d1308" x="915" y="440.7" width="12.2" height="24.65" shape-rendering="crispEdges"/><rect fill="#003054" x="927.2" y="440.7" width="24.4" height="24.65" shape-rendering="crispEdges"/><rect fill="#1d1308" x="951.6" y="440.7" width="24.4" height="24.65" shape-rendering="crispEdges"/><rect fill="#1d1308" x="0" y="465.1" width="24.4" height="24.65" shape-rendering="crispEdges"/><rect fill="#1d1308" x="24.4" y="465.1" width="12.2" height="24.65" shape-rendering="crispEdges"/><rect fill="#1d1308" x="36.6" y="465.1" width="12.2" height="24.65" shape-rendering="crispEdges"/><rect fill="#1d1308" x="48.8" y="465.1" width="24.4" height="24.65" shape-rendering="crispEdges"/><rect fill="#1d1308" x="73.2" y="465.1" width="61" height="24.65" shape-rendering="crispEdges"/><rect fill="#1d1308" x="134.2" y="465.1" width="768.6" height="24.65" shape-rendering="crispEdges"/><rect fill="#1d1308" x="902.8" y="465.1" width="12.2" height="24.65" shape-rendering="crispEdges"/><rect fill="#1d1308" x="915" y="465.1" width="12.2" height="24.65" shape-rendering="crispEdges"/><rect fill="#003054" x="927.2" y="465.1" width="24.4" height="24.65" shape-rendering="crispEdges"/><rect fill="#1d1308" x="951.6" y="465.1" width="24.4" height="24.65" shape-rendering="crispEdges"/><rect fill="#1d1308" x="0" y="489.5" width="24.4" height="24.65" shape-rendering="crispEdges"/><rect fill="#1d1308" x="24.4" y="489.5" width="12.2" height="24.65" shape-rendering="crispEdges"/><rect fill="#1d1308" x="36.6" y="489.5" width="12.2" height="24.65" shape-rendering="crispEdges"/><rect fill="#1d1308" x="48.8" y="489.5" width="854" height="24.65" shape-rendering="crispEdges"/><rect fill="#1d1308" x="902.8" y="489.5" width="12.2" height="24.65" shape-rendering="crispEdges"/><rect fill="#1d1308" x="915" y="489.5" width="12.2" height="24.65" shape-rendering="crispEdges"/><rect fill="#003054" x="927.2" y="489.5" width="24.4" height="24.65" shape-rendering="crispEdges"/><rect fill="#1d1308" x="951.6" y="489.5" width="24.4" height="24.65" shape-rendering="crispEdges"/><rect fill="#1d1308" x="0" y="513.9" width="24.4" height="24.65" shape-rendering="crispEdges"/><rect fill="#1d1308" x="24.4" y="513.9" width="12.2" height="24.65" shape-rendering="crispEdges"/><rect fill="#1d1308" x="36.6" y="513.9" width="12.2" height="24.65" shape-rendering="crispEdges"/><rect fill="#1d1308" x="48.8" y="513.9" width="439.2" height="24.65" shape-rendering="crispEdges"/><rect fill="#1d1308" x="488" y="513.9" width="414.8" height="24.65" shape-rendering="crispEdges"/><rect fill="#1d1308" x="902.8" y="513.9" width="12.2" height="24.65" shape-rendering="crispEdges"/><rect fill="#1d1308" x="915" y="513.9" width="12.2" height="24.65" shape-rendering="crispEdges"/><rect fill="#003054" x="927.2" y="513.9" width="24.4" height="24.65" shape-rendering="crispEdges"/><rect fill="#1d1308" x="951.6" y="513.9" width="24.4" height="24.65" shape-rendering="crispEdges"/><rect fill="#1d1308" x="0" y="538.3" width="24.4" height="24.65" shape-rendering="crispEdges"/><rect fill="#1d1308" x="24.4" y="538.3" width="12.2" height="24.65" shape-rendering="crispEdges"/><rect fill="#1d1308" x="36.6" y="538.3" width="878.4" height="24.65" shape-rendering="crispEdges"/><rect fill="#1d1308" x="915" y="538.3" width="12.2" height="24.65" shape-rendering="crispEdges"/><rect fill="#003054" x="927.2" y="538.3" width="24.4" height="24.65" shape-rendering="crispEdges"/><rect fill="#1d1308" x="951.6" y="538.3" width="24.4" height="24.65" shape-rendering="crispEdges"/><rect fill="#1d1308" x="0" y="562.7" width="24.4" height="24.65" shape-rendering="crispEdges"/><rect fill="#1d1308" x="24.4" y="562.7" width="902.8" height="24.65" shape-rendering="crispEdges"/><rect fill="#003054" x="927.2" y="562.7" width="24.4" height="24.65" shape-rendering="crispEdges"/><rect fill="#1d1308" x="951.6" y="562.7" width="24.4" height="24.65" shape-rendering="crispEdges"/><rect fill="#1d1308" x="0" y="587.1" width="976" height="24.65" shape-rendering="crispEdges"/><rect fill="#2c1d0e" x="0" y="611.5" width="12.2" height="24.65" shape-rendering="crispEdges"/><rect fill="#2c1d0e" x="12.2" y="611.5" width="951.6" height="24.65" shape-rendering="crispEdges"/><rect fill="#2c1d0e" x="963.8" y="611.5" width="12.2" height="24.65" shape-rendering="crispEdges"/><rect fill="#2c1d0e" x="0" y="635.9" width="12.2" height="24.65" shape-rendering="crispEdges"/><rect fill="#2c1d0e" x="12.2" y="635.9" width="12.2" height="24.65" shape-rendering="crispEdges"/><rect fill="#e0e0e0" x="24.4" y="635.9" width="12.2" height="24.65" shape-rendering="crispEdges"/><rect fill="#2c1d0e" x="36.6" y="635.9" width="915" height="24.65" shape-rendering="crispEdges"/><rect fill="#2c1d0e" x="951.6" y="635.9" width="12.2" height="24.65" shape-rendering="crispEdges"/><rect fill="#2c1d0e" x="963.8" y="635.9" width="12.2" height="24.65" shape-rendering="crispEdges"/><rect fill="#2c1d0e" x="0" y="660.3" width="12.2" height="24.65" shape-rendering="crispEdges"/><rect fill="#2c1d0e" x="12.2" y="660.3" width="951.6" height="24.65" shape-rendering="crispEdges"/><rect fill="#2c1d0e" x="963.8" y="660.3" width="12.2" height="24.65" shape-rendering="crispEdges"/>
    <g class="terminal-1384607394-matrix">
    <text class="terminal-1384607394-r1" x="0" y="20" textLength="329.4" clip-path="url(#terminal-1384607394-line-0)">&#160;QwenPaw&#160;1.1.10&#160;&#160;TUI&#160;0.1.0&#160;</text><text class="terminal-1384607394-r2" x="329.4" y="20" textLength="97.6" clip-path="url(#terminal-1384607394-line-0)">&#160;&#160;agent:</text><text class="terminal-1384607394-r3" x="427" y="20" textLength="85.4" clip-path="url(#terminal-1384607394-line-0)">default</text><text class="terminal-1384607394-r5" x="536.8" y="20" textLength="134.2" clip-path="url(#terminal-1384607394-line-0)">qwen3.7-max</text><text class="terminal-1384607394-r2" x="671" y="20" textLength="122" clip-path="url(#terminal-1384607394-line-0)">&#160;&#160;session:</text><text class="terminal-1384607394-r4" x="793" y="20" textLength="134.2" clip-path="url(#terminal-1384607394-line-0)">sess-abc&#160;&#160;&#160;</text><text class="terminal-1384607394-r6" x="927.2" y="20" textLength="12.2" clip-path="url(#terminal-1384607394-line-0)">●</text><text class="terminal-1384607394-r7" x="976" y="20" textLength="12.2" clip-path="url(#terminal-1384607394-line-0)">
</text><text class="terminal-1384607394-r7" x="976" y="44.4" textLength="12.2" clip-path="url(#terminal-1384607394-line-1)">
</text><text class="terminal-1384607394-r9" x="24.4" y="68.8" textLength="12.2" clip-path="url(#terminal-1384607394-line-2)">╭</text><text class="terminal-1384607394-r9" x="36.6" y="68.8" textLength="488" clip-path="url(#terminal-1384607394-line-2)">────────────────────────────────────────</text><text class="terminal-1384607394-r9" x="524.6" y="68.8" textLength="12.2" clip-path="url(#terminal-1384607394-line-2)">╮</text><text class="terminal-1384607394-r7" x="976" y="68.8" textLength="12.2" clip-path="url(#terminal-1384607394-line-2)">
</text><text class="terminal-1384607394-r9" x="24.4" y="93.2" textLength="12.2" clip-path="url(#terminal-1384607394-line-3)">│</text><text class="terminal-1384607394-r10" x="48.8" y="93.2" textLength="24.4" clip-path="url(#terminal-1384607394-line-3)">❯&#160;</text><text class="terminal-1384607394-r8" x="73.2" y="93.2" textLength="439.2" clip-path="url(#terminal-1384607394-line-3)">summarize&#160;today&#x27;s&#160;unread&#160;newsletters</text><text class="terminal-1384607394-r9" x="524.6" y="93.2" textLength="12.2" clip-path="url(#terminal-1384607394-line-3)">│</text><text class="terminal-1384607394-r7" x="976" y="93.2" textLength="12.2" clip-path="url(#terminal-1384607394-line-3)">
</text><text class="terminal-1384607394-r9" x="24.4" y="117.6" textLength="12.2" clip-path="url(#terminal-1384607394-line-4)">╰</text><text class="terminal-1384607394-r9" x="36.6" y="117.6" textLength="488" clip-path="url(#terminal-1384607394-line-4)">────────────────────────────────────────</text><text class="terminal-1384607394-r9" x="524.6" y="117.6" textLength="12.2" clip-path="url(#terminal-1384607394-line-4)">╯</text><text class="terminal-1384607394-r7" x="976" y="117.6" textLength="12.2" clip-path="url(#terminal-1384607394-line-4)">
</text><text class="terminal-1384607394-r7" x="976" y="142" textLength="12.2" clip-path="url(#terminal-1384607394-line-5)">
</text><text class="terminal-1384607394-r11" x="36.6" y="166.4" textLength="85.4" clip-path="url(#terminal-1384607394-line-6)">qwenpaw</text><text class="terminal-1384607394-r7" x="976" y="166.4" textLength="12.2" clip-path="url(#terminal-1384607394-line-6)">
</text><text class="terminal-1384607394-r12" x="24.4" y="190.8" textLength="12.2" clip-path="url(#terminal-1384607394-line-7)">╭</text><text class="terminal-1384607394-r12" x="36.6" y="190.8" textLength="878.4" clip-path="url(#terminal-1384607394-line-7)">────────────────────────────────────────────────────────────────────────</text><text class="terminal-1384607394-r12" x="915" y="190.8" textLength="12.2" clip-path="url(#terminal-1384607394-line-7)">╮</text><text class="terminal-1384607394-r7" x="976" y="190.8" textLength="12.2" clip-path="url(#terminal-1384607394-line-7)">
</text><text class="terminal-1384607394-r12" x="24.4" y="215.2" textLength="12.2" clip-path="url(#terminal-1384607394-line-8)">│</text><text class="terminal-1384607394-r6" x="48.8" y="215.2" textLength="24.4" clip-path="url(#terminal-1384607394-line-8)">✓&#160;</text><text class="terminal-1384607394-r2" x="73.2" y="215.2" textLength="73.2" clip-path="url(#terminal-1384607394-line-8)">using&#160;</text><text class="terminal-1384607394-r13" x="146.4" y="215.2" textLength="122" clip-path="url(#terminal-1384607394-line-8)">read_inbox</text><text class="terminal-1384607394-r14" x="292.8" y="215.2" textLength="402.6" clip-path="url(#terminal-1384607394-line-8)">folder:&#160;newsletters,&#160;unread:&#160;true</text><text class="terminal-1384607394-r12" x="915" y="215.2" textLength="12.2" clip-path="url(#terminal-1384607394-line-8)">│</text><text class="terminal-1384607394-r15" x="927.2" y="215.2" textLength="24.4" clip-path="url(#terminal-1384607394-line-8)">▅▅</text><text class="terminal-1384607394-r7" x="976" y="215.2" textLength="12.2" clip-path="url(#terminal-1384607394-line-8)">
</text><text class="terminal-1384607394-r12" x="24.4" y="239.6" textLength="12.2" clip-path="url(#terminal-1384607394-line-9)">╰</text><text class="terminal-1384607394-r12" x="36.6" y="239.6" textLength="878.4" clip-path="url(#terminal-1384607394-line-9)">────────────────────────────────────────────────────────────────────────</text><text class="terminal-1384607394-r12" x="915" y="239.6" textLength="12.2" clip-path="url(#terminal-1384607394-line-9)">╯</text><text class="terminal-1384607394-r7" x="976" y="239.6" textLength="12.2" clip-path="url(#terminal-1384607394-line-9)">
</text><text class="terminal-1384607394-r7" x="976" y="264" textLength="12.2" clip-path="url(#terminal-1384607394-line-10)">
</text><text class="terminal-1384607394-r12" x="24.4" y="288.4" textLength="12.2" clip-path="url(#terminal-1384607394-line-11)">╭</text><text class="terminal-1384607394-r12" x="36.6" y="288.4" textLength="878.4" clip-path="url(#terminal-1384607394-line-11)">────────────────────────────────────────────────────────────────────────</text><text class="terminal-1384607394-r12" x="915" y="288.4" textLength="12.2" clip-path="url(#terminal-1384607394-line-11)">╮</text><text class="terminal-1384607394-r7" x="976" y="288.4" textLength="12.2" clip-path="url(#terminal-1384607394-line-11)">
</text><text class="terminal-1384607394-r12" x="24.4" y="312.8" textLength="12.2" clip-path="url(#terminal-1384607394-line-12)">│</text><text class="terminal-1384607394-r17" x="48.8" y="312.8" textLength="390.4" clip-path="url(#terminal-1384607394-line-12)">Here&#x27;s&#160;what&#160;I&#160;found&#160;across&#160;your&#160;</text><text class="terminal-1384607394-r18" x="439.2" y="312.8" textLength="244" clip-path="url(#terminal-1384607394-line-12)">3&#160;unread&#160;newsletters</text><text class="terminal-1384607394-r17" x="683.2" y="312.8" textLength="12.2" clip-path="url(#terminal-1384607394-line-12)">:</text><text class="terminal-1384607394-r12" x="915" y="312.8" textLength="12.2" clip-path="url(#terminal-1384607394-line-12)">│</text><text class="terminal-1384607394-r7" x="976" y="312.8" textLength="12.2" clip-path="url(#terminal-1384607394-line-12)">
</text><text class="terminal-1384607394-r12" x="24.4" y="337.2" textLength="12.2" clip-path="url(#terminal-1384607394-line-13)">│</text><text class="terminal-1384607394-r12" x="915" y="337.2" textLength="12.2" clip-path="url(#terminal-1384607394-line-13)">│</text><text class="terminal-1384607394-r7" x="976" y="337.2" textLength="12.2" clip-path="url(#terminal-1384607394-line-13)">
</text><text class="terminal-1384607394-r12" x="24.4" y="361.6" textLength="12.2" clip-path="url(#terminal-1384607394-line-14)">│</text><text class="terminal-1384607394-r19" x="48.8" y="361.6" textLength="24.4" clip-path="url(#terminal-1384607394-line-14)">•&#160;</text><text class="terminal-1384607394-r18" x="73.2" y="361.6" textLength="146.4" clip-path="url(#terminal-1384607394-line-14)">The&#160;Athletic</text><text class="terminal-1384607394-r17" x="219.6" y="361.6" textLength="646.6" clip-path="url(#terminal-1384607394-line-14)">&#160;—&#160;Knicks&#160;go&#160;up&#160;2-0&#160;on&#160;the&#160;Suns;&#160;Game&#160;3&#160;is&#160;tonight&#160;at</text><text class="terminal-1384607394-r12" x="915" y="361.6" textLength="12.2" clip-path="url(#terminal-1384607394-line-14)">│</text><text class="terminal-1384607394-r7" x="976" y="361.6" textLength="12.2" clip-path="url(#terminal-1384607394-line-14)">
</text><text class="terminal-1384607394-r12" x="24.4" y="386" textLength="12.2" clip-path="url(#terminal-1384607394-line-15)">│</text><text class="terminal-1384607394-r17" x="73.2" y="386" textLength="122" clip-path="url(#terminal-1384607394-line-15)">the&#160;Garden</text><text class="terminal-1384607394-r12" x="915" y="386" textLength="12.2" clip-path="url(#terminal-1384607394-line-15)">│</text><text class="terminal-1384607394-r7" x="976" y="386" textLength="12.2" clip-path="url(#terminal-1384607394-line-15)">
</text><text class="terminal-1384607394-r12" x="24.4" y="410.4" textLength="12.2" clip-path="url(#terminal-1384607394-line-16)">│</text><text class="terminal-1384607394-r19" x="48.8" y="410.4" textLength="24.4" clip-path="url(#terminal-1384607394-line-16)">•&#160;</text><text class="terminal-1384607394-r18" x="73.2" y="410.4" textLength="183" clip-path="url(#terminal-1384607394-line-16)">Nature&#160;Briefing</text><text class="terminal-1384607394-r17" x="256.2" y="410.4" textLength="573.4" clip-path="url(#terminal-1384607394-line-16)">&#160;—&#160;new&#160;drug&#160;nearly&#160;doubles&#160;survival&#160;in&#160;advanced</text><text class="terminal-1384607394-r12" x="915" y="410.4" textLength="12.2" clip-path="url(#terminal-1384607394-line-16)">│</text><text class="terminal-1384607394-r7" x="976" y="410.4" textLength="12.2" clip-path="url(#terminal-1384607394-line-16)">
</text><text class="terminal-1384607394-r12" x="24.4" y="434.8" textLength="12.2" clip-path="url(#terminal-1384607394-line-17)">│</text><text class="terminal-1384607394-r17" x="73.2" y="434.8" textLength="207.4" clip-path="url(#terminal-1384607394-line-17)">pancreatic&#160;cancer</text><text class="terminal-1384607394-r12" x="915" y="434.8" textLength="12.2" clip-path="url(#terminal-1384607394-line-17)">│</text><text class="terminal-1384607394-r7" x="976" y="434.8" textLength="12.2" clip-path="url(#terminal-1384607394-line-17)">
</text><text class="terminal-1384607394-r12" x="24.4" y="459.2" textLength="12.2" clip-path="url(#terminal-1384607394-line-18)">│</text><text class="terminal-1384607394-r19" x="48.8" y="459.2" textLength="24.4" clip-path="url(#terminal-1384607394-line-18)">•&#160;</text><text class="terminal-1384607394-r18" x="73.2" y="459.2" textLength="158.6" clip-path="url(#terminal-1384607394-line-18)">Hyperallergic</text><text class="terminal-1384607394-r17" x="231.8" y="459.2" textLength="671" clip-path="url(#terminal-1384607394-line-18)">&#160;—&#160;&quot;Indian&#160;Theater&quot;&#160;opens&#160;at&#160;SITE&#160;Santa&#160;Fe,&#160;100+&#160;Native</text><text class="terminal-1384607394-r12" x="915" y="459.2" textLength="12.2" clip-path="url(#terminal-1384607394-line-18)">│</text><text class="terminal-1384607394-r7" x="976" y="459.2" textLength="12.2" clip-path="url(#terminal-1384607394-line-18)">
</text><text class="terminal-1384607394-r12" x="24.4" y="483.6" textLength="12.2" clip-path="url(#terminal-1384607394-line-19)">│</text><text class="terminal-1384607394-r17" x="73.2" y="483.6" textLength="61" clip-path="url(#terminal-1384607394-line-19)">works</text><text class="terminal-1384607394-r12" x="915" y="483.6" textLength="12.2" clip-path="url(#terminal-1384607394-line-19)">│</text><text class="terminal-1384607394-r7" x="976" y="483.6" textLength="12.2" clip-path="url(#terminal-1384607394-line-19)">
</text><text class="terminal-1384607394-r12" x="24.4" y="508" textLength="12.2" clip-path="url(#terminal-1384607394-line-20)">│</text><text class="terminal-1384607394-r12" x="915" y="508" textLength="12.2" clip-path="url(#terminal-1384607394-line-20)">│</text><text class="terminal-1384607394-r7" x="976" y="508" textLength="12.2" clip-path="url(#terminal-1384607394-line-20)">
</text><text class="terminal-1384607394-r12" x="24.4" y="532.4" textLength="12.2" clip-path="url(#terminal-1384607394-line-21)">│</text><text class="terminal-1384607394-r17" x="48.8" y="532.4" textLength="439.2" clip-path="url(#terminal-1384607394-line-21)">Want&#160;the&#160;full&#160;story&#160;on&#160;any&#160;of&#160;these?</text><text class="terminal-1384607394-r12" x="915" y="532.4" textLength="12.2" clip-path="url(#terminal-1384607394-line-21)">│</text><text class="terminal-1384607394-r7" x="976" y="532.4" textLength="12.2" clip-path="url(#terminal-1384607394-line-21)">
</text><text class="terminal-1384607394-r12" x="24.4" y="556.8" textLength="12.2" clip-path="url(#terminal-1384607394-line-22)">╰</text><text class="terminal-1384607394-r12" x="36.6" y="556.8" textLength="878.4" clip-path="url(#terminal-1384607394-line-22)">────────────────────────────────────────────────────────────────────────</text><text class="terminal-1384607394-r12" x="915" y="556.8" textLength="12.2" clip-path="url(#terminal-1384607394-line-22)">╯</text><text class="terminal-1384607394-r7" x="976" y="556.8" textLength="12.2" clip-path="url(#terminal-1384607394-line-22)">
</text><text class="terminal-1384607394-r7" x="976" y="581.2" textLength="12.2" clip-path="url(#terminal-1384607394-line-23)">
</text><text class="terminal-1384607394-r7" x="976" y="605.6" textLength="12.2" clip-path="url(#terminal-1384607394-line-24)">
</text><text class="terminal-1384607394-r20" x="0" y="630" textLength="12.2" clip-path="url(#terminal-1384607394-line-25)">╭</text><text class="terminal-1384607394-r20" x="12.2" y="630" textLength="951.6" clip-path="url(#terminal-1384607394-line-25)">──────────────────────────────────────────────────────────────────────────────</text><text class="terminal-1384607394-r20" x="963.8" y="630" textLength="12.2" clip-path="url(#terminal-1384607394-line-25)">╮</text><text class="terminal-1384607394-r7" x="976" y="630" textLength="12.2" clip-path="url(#terminal-1384607394-line-25)">
</text><text class="terminal-1384607394-r20" x="0" y="654.4" textLength="12.2" clip-path="url(#terminal-1384607394-line-26)">│</text><text class="terminal-1384607394-r21" x="24.4" y="654.4" textLength="12.2" clip-path="url(#terminal-1384607394-line-26)">t</text><text class="terminal-1384607394-r22" x="36.6" y="654.4" textLength="915" clip-path="url(#terminal-1384607394-line-26)">ype&#160;a&#160;message&#160;&#160;(/&#160;commands&#160;·&#160;enter&#160;send/queue&#160;·&#160;shift+enter&#160;newline&#160;·&#160;paste</text><text class="terminal-1384607394-r20" x="963.8" y="654.4" textLength="12.2" clip-path="url(#terminal-1384607394-line-26)">│</text><text class="terminal-1384607394-r7" x="976" y="654.4" textLength="12.2" clip-path="url(#terminal-1384607394-line-26)">
</text><text class="terminal-1384607394-r20" x="0" y="678.8" textLength="12.2" clip-path="url(#terminal-1384607394-line-27)">╰</text><text class="terminal-1384607394-r20" x="12.2" y="678.8" textLength="951.6" clip-path="url(#terminal-1384607394-line-27)">──────────────────────────────────────────────────────────────────────────────</text><text class="terminal-1384607394-r20" x="963.8" y="678.8" textLength="12.2" clip-path="url(#terminal-1384607394-line-27)">╯</text>
    </g>
    </g>
</svg>
